<svg xmlns="http://www.w3.org/2000/svg" viewBox="-24 -24 303 353"><g transform="rotate(180 127.5 152.5)"><g transform="matrix(0.893571,0,0,0.837519,-216.082431,-88.776968)">
        <path fill="#0d9aa8" d="M384,106C415.238,152.626 408.894,180.295 412.607,215C416.201,248.591 418.929,320.878 434,321C454.667,321.167 462.955,321.259 483.175,273C503.314,224.936 512.175,220 512.175,220C512.175,220 526.519,245.236 526.175,276C525.876,302.765 493.243,396.398 461,426C432.101,452.531 401.201,470.764 382.039,469C360.258,466.995 338.263,442.602 307,413C278.505,386.019 242.124,282.765 241.825,256C241.481,225.236 255.825,200 255.825,200C255.825,200 264.686,204.936 284.825,253C305.045,301.259 313.333,321.167 334,321C349.071,320.878 350.735,248.455 355.393,215C360.087,181.295 352.762,143.626 384,106Z"/>
    </g></g></svg>