<?xml version="1.0" encoding="UTF-8" standalone="no"?>
<!DOCTYPE svg PUBLIC "-//W3C//DTD SVG 1.1//EN" "http://www.w3.org/Graphics/SVG/1.1/DTD/svg11.dtd">
<svg width="100%" height="100%" viewBox="0 0 274 274" version="1.1" xmlns="http://www.w3.org/2000/svg" xmlns:xlink="http://www.w3.org/1999/xlink" xml:space="preserve" xmlns:serif="http://www.serif.com/" style="fill-rule:evenodd;clip-rule:evenodd;stroke-linejoin:round;stroke-miterlimit:2;">
    <g id="Clade" transform="matrix(1,0,0,1,-416,-242.882259)">
        <g transform="matrix(1,0,0,1,5,-16)">
            <path d="M547.559,258.882C622.928,258.882 684.118,320.072 684.118,395.441C684.118,470.81 622.928,532 547.559,532C472.19,532 411,470.81 411,395.441C411,320.072 472.19,258.882 547.559,258.882ZM573.559,345.589C560.623,334.636 547.673,337.205 536.086,335.559C524.584,333.926 499.686,333.342 499.644,328.058C499.586,320.812 506.431,317.906 523.022,310.816C539.546,303.755 541.243,300.648 541.243,300.648C541.243,300.648 532.567,295.619 521.99,295.74C512.789,295.844 477.291,308.6 468.015,318.591C457.838,329.553 449.452,337.265 448.763,344.902C448.156,351.62 454.425,362.454 463.546,372.587C473.723,383.892 505.913,395.334 515.114,395.439C525.691,395.559 534.367,390.53 534.367,390.53C534.367,390.53 532.67,387.423 516.146,380.362C499.555,373.272 499.586,370.366 499.644,363.12C499.686,357.836 524.537,356.879 536.086,355.619C548.017,354.317 557.529,356.542 573.559,345.589ZM650.603,445.293C634.573,434.34 625.061,436.565 613.13,435.263C601.581,434.003 576.73,433.046 576.688,427.762C576.63,420.516 576.599,417.61 593.19,410.52C609.714,403.459 611.411,400.352 611.411,400.352C611.411,400.352 602.735,395.323 592.158,395.444C582.957,395.548 550.767,406.99 540.59,418.295C531.469,428.428 525.2,439.262 525.807,445.981C526.496,453.618 534.882,461.33 545.059,472.291C554.335,482.282 589.833,495.038 599.034,495.143C609.611,495.263 618.287,490.234 618.287,490.234C618.287,490.234 616.59,487.127 600.066,480.066C583.475,472.976 576.63,470.07 576.688,462.824C576.73,457.54 601.628,456.957 613.13,455.323C624.717,453.678 637.667,456.246 650.603,445.293Z"/>
        </g>
    </g>
</svg>
